# 3ds Max Wavefront OBJ Exporter v0.99 - (c)2007 guruware
# File Created: 16.05.2023 22:05:32

mtllib mesa.mtl

#
# object Table_low
#

v  -6.6372 8.7666 -21.6405
v  -6.6372 7.8676 -21.6405
v  -6.6372 7.8676 21.6405
v  -6.6372 8.7666 21.6405
v  -1.0013 8.7666 -21.6405
v  -1.0013 7.8676 -21.6405
v  -1.0013 7.8676 21.6405
v  -1.0013 8.7666 21.6405
v  -6.6372 6.9055 -17.7035
v  -6.6372 6.9055 -16.4619
v  -6.6372 7.8676 -16.4619
v  -6.6372 7.8676 -17.7035
v  -5.7784 5.9437 -16.4619
v  -5.7784 5.9437 -17.7035
v  25.1120 5.9437 -16.4619
v  25.9707 6.9055 -16.4619
v  25.9707 7.8676 -16.4619
v  25.9707 6.9055 -17.7035
v  25.9707 7.8676 -17.7035
v  25.1120 5.9437 -17.7035
v  20.3348 8.7666 -21.6405
v  20.3348 7.8676 -21.6405
v  20.3348 7.8676 21.6405
v  20.3348 8.7666 21.6405
v  25.9707 7.8676 -21.6405
v  25.9707 8.7666 -21.6405
v  25.9707 8.7666 21.6405
v  25.9707 7.8676 21.6405
v  18.8278 15.7480 -21.6405
v  18.8278 14.7913 -21.6405
v  0.9241 14.7913 -21.6405
v  0.9241 15.7480 -21.6405
v  18.8278 14.7913 21.6405
v  0.9241 14.7913 21.6405
v  0.9241 15.7480 21.6405
v  18.8278 15.7480 21.6405
v  0.9241 13.8292 -16.4619
v  0.9241 14.7913 -16.4619
v  0.9241 14.7913 -17.7035
v  0.9241 13.8292 -17.7035
v  18.8278 13.8292 -17.7035
v  18.8278 14.7913 -17.7035
v  18.8278 14.7913 -16.4619
v  18.8278 13.8292 -16.4619
v  17.9500 12.8674 -16.4619
v  1.8019 12.8674 -16.4619
v  1.8019 12.8674 -17.7035
v  17.9500 12.8674 -17.7035
v  -6.6372 6.9055 17.7035
v  -6.6372 7.8676 17.7035
v  -6.6372 7.8676 16.4619
v  -6.6372 6.9055 16.4619
v  -5.7784 5.9437 16.4619
v  -5.7784 5.9437 17.7035
v  25.9707 7.8676 16.4619
v  25.9707 6.9055 16.4619
v  25.1120 5.9437 16.4619
v  25.9707 6.9055 17.7035
v  25.9707 7.8676 17.7035
v  25.1120 5.9437 17.7035
v  0.9241 13.8292 16.4619
v  0.9241 13.8292 17.7035
v  0.9241 14.7913 17.7035
v  0.9241 14.7913 16.4619
v  18.8278 13.8292 17.7035
v  18.8278 13.8292 16.4619
v  18.8278 14.7913 16.4619
v  18.8278 14.7913 17.7035
v  17.9500 12.8674 16.4619
v  17.9500 12.8674 17.7035
v  1.8019 12.8674 17.7035
v  1.8019 12.8674 16.4619
v  10.4968 5.9527 16.4619
v  10.4968 7.8767 16.4619
v  9.2551 7.8767 16.4619
v  9.2552 5.9527 16.4619
v  10.4968 14.7913 7.2805
v  9.2552 14.7913 7.2805
v  9.2551 14.7998 4.6874
v  10.4968 14.7998 4.6874
v  10.4968 5.9527 -16.4619
v  9.2552 5.9527 -16.4619
v  9.2551 7.8767 -16.4619
v  10.4968 7.8767 -16.4619
v  9.2552 14.7913 -7.2805
v  10.4968 14.7913 -7.2805
v  9.2551 14.7998 -4.6874
v  10.4968 14.7998 -4.6874
v  21.7205 -0.0065 -17.7035
v  17.9703 14.7913 -17.7035
v  16.2145 14.7913 -17.7035
v  19.7965 -0.0065 -17.7035
v  17.9703 14.7913 -18.5891
v  21.7205 -0.0065 -18.5891
v  19.7965 -0.0065 -18.5891
v  16.2145 14.7913 -18.5891
v  -0.9396 -0.0065 -17.7035
v  3.5985 14.7913 -17.7035
v  1.8427 14.7913 -17.7035
v  -2.8635 -0.0065 -17.7035
v  3.5985 14.7913 -18.5891
v  -0.9396 -0.0065 -18.5891
v  -2.8635 -0.0065 -18.5891
v  1.8427 14.7913 -18.5891
v  21.7205 -0.0065 17.7035
v  19.7965 -0.0065 17.7035
v  16.2145 14.7913 17.7035
v  17.9703 14.7913 17.7035
v  17.9703 14.7913 18.5891
v  16.2145 14.7913 18.5891
v  19.7965 -0.0065 18.5891
v  21.7205 -0.0065 18.5891
v  -0.9396 -0.0065 17.7035
v  -2.8635 -0.0065 17.7035
v  1.8427 14.7913 17.7035
v  3.5985 14.7913 17.7035
v  3.5985 14.7913 18.5891
v  1.8427 14.7913 18.5891
v  -2.8635 -0.0065 18.5891
v  -0.9396 -0.0065 18.5891
# 120 vertices

vn -1.0000 0.0000 -0.0000
vn 0.0000 0.0000 -1.0000
vn 0.0000 -1.0000 -0.0000
vn 1.0000 0.0000 -0.0000
vn 0.0000 0.0000 1.0000
vn 0.0000 1.0000 -0.0000
vn -0.7459 -0.6660 -0.0000
vn 0.0000 -0.0000 1.0000
vn 0.7459 -0.6660 -0.0000
vn -0.7386 -0.6741 -0.0000
vn 0.7386 -0.6741 -0.0000
vn 0.0000 -0.0000 -1.0000
vn -0.0000 0.0000 1.0000
vn -0.0000 0.7988 0.6016
vn -0.0000 -0.7995 -0.6007
vn -1.0000 0.0000 0.0000
vn 0.0000 1.0000 0.0033
vn -0.0000 0.0000 -1.0000
vn -0.0000 0.7988 -0.6016
vn -0.0000 -0.7995 0.6007
vn 0.0000 1.0000 -0.0033
vn -0.9719 -0.2353 -0.0000
vn 0.9694 0.2457 -0.0000
vn -0.9530 0.3031 -0.0000
vn 0.9561 -0.2932 -0.0000
# 25 vertex normals

vt 0.8040 0.6326 0.0000
vt 0.7914 0.6326 0.0000
vt 0.7914 0.0264 0.0000
vt 0.8040 0.0263 0.0000
vt 0.8040 0.6452 0.0000
vt 0.8830 0.6326 0.0000
vt 0.8830 0.6452 0.0000
vt 0.9745 0.6326 0.0000
vt 0.8956 0.6326 0.0000
vt 0.8956 0.0264 0.0000
vt 0.9745 0.0264 0.0000
vt 0.8830 0.0264 0.0000
vt 0.8040 0.0137 0.0000
vt 0.8830 0.0138 0.0000
vt 0.4890 0.8917 0.0000
vt 0.4890 0.8743 0.0000
vt 0.5025 0.8743 0.0000
vt 0.5024 0.8917 0.0000
vt 0.4755 0.8743 0.0000
vt 0.4755 0.8916 0.0000
vt 0.4876 0.8473 0.0000
vt 0.4876 0.8608 0.0000
vt 0.0428 0.8743 0.0000
vt 0.0308 0.8608 0.0000
vt 0.0308 0.8473 0.0000
vt 0.0294 0.8917 0.0000
vt 0.0159 0.8917 0.0000
vt 0.0159 0.8743 0.0000
vt 0.0293 0.8743 0.0000
vt 0.4876 0.8299 0.0000
vt 0.0308 0.8299 0.0000
vt 0.0428 0.8916 0.0000
vt 0.4755 0.8030 0.0000
vt 0.4876 0.8164 0.0000
vt 0.0308 0.8164 0.0000
vt 0.0428 0.8030 0.0000
vt 0.5950 0.6364 0.0000
vt 0.5824 0.6364 0.0000
vt 0.5824 0.0302 0.0000
vt 0.5950 0.0302 0.0000
vt 0.6739 0.6490 0.0000
vt 0.5950 0.6490 0.0000
vt 0.6739 0.6364 0.0000
vt 0.6739 0.0302 0.0000
vt 0.6865 0.0302 0.0000
vt 0.6865 0.6364 0.0000
vt 0.6739 0.0176 0.0000
vt 0.5950 0.0176 0.0000
vt 0.7655 0.0302 0.0000
vt 0.7655 0.6364 0.0000
vt 0.2835 0.6364 0.0000
vt 0.2835 0.6498 0.0000
vt 0.0327 0.6498 0.0000
vt 0.0327 0.6364 0.0000
vt 0.5477 0.6364 0.0000
vt 0.2969 0.6364 0.0000
vt 0.2969 0.0302 0.0000
vt 0.5477 0.0302 0.0000
vt 0.0193 0.6364 0.0000
vt 0.0193 0.0302 0.0000
vt 0.0327 0.0302 0.0000
vt 0.2835 0.0302 0.0000
vt 0.0327 0.0168 0.0000
vt 0.2835 0.0168 0.0000
vt 0.5241 0.8211 0.0000
vt 0.5106 0.8211 0.0000
vt 0.5106 0.8037 0.0000
vt 0.5241 0.8037 0.0000
vt 0.7772 0.8038 0.0000
vt 0.7907 0.8038 0.0000
vt 0.7907 0.8212 0.0000
vt 0.7772 0.8212 0.0000
vt 0.5252 0.8655 0.0000
vt 0.5252 0.8481 0.0000
vt 0.7760 0.8481 0.0000
vt 0.7760 0.8655 0.0000
vt 0.7637 0.8211 0.0000
vt 0.5375 0.8211 0.0000
vt 0.5375 0.8038 0.0000
vt 0.7637 0.8038 0.0000
vt 0.7760 0.8346 0.0000
vt 0.5252 0.8346 0.0000
vt 0.7637 0.8924 0.0000
vt 0.5375 0.8924 0.0000
vt 0.5252 0.8790 0.0000
vt 0.7760 0.8790 0.0000
vt 0.4900 0.6925 0.0000
vt 0.5035 0.6925 0.0000
vt 0.5035 0.7099 0.0000
vt 0.4900 0.7099 0.0000
vt 0.4765 0.7099 0.0000
vt 0.4765 0.6925 0.0000
vt 0.4886 0.7368 0.0000
vt 0.0318 0.7368 0.0000
vt 0.0318 0.7233 0.0000
vt 0.0439 0.7099 0.0000
vt 0.4886 0.7233 0.0000
vt 0.0303 0.6926 0.0000
vt 0.0304 0.7100 0.0000
vt 0.0169 0.7100 0.0000
vt 0.0168 0.6926 0.0000
vt 0.4886 0.7542 0.0000
vt 0.0318 0.7542 0.0000
vt 0.0438 0.6925 0.0000
vt 0.4765 0.7812 0.0000
vt 0.0438 0.7812 0.0000
vt 0.0318 0.7677 0.0000
vt 0.4886 0.7677 0.0000
vt 0.5226 0.7540 0.0000
vt 0.5227 0.7714 0.0000
vt 0.5092 0.7714 0.0000
vt 0.5091 0.7540 0.0000
vt 0.7757 0.7714 0.0000
vt 0.7758 0.7540 0.0000
vt 0.7893 0.7540 0.0000
vt 0.7892 0.7714 0.0000
vt 0.5238 0.7096 0.0000
vt 0.7746 0.7096 0.0000
vt 0.7746 0.7270 0.0000
vt 0.5238 0.7270 0.0000
vt 0.7623 0.7539 0.0000
vt 0.7623 0.7713 0.0000
vt 0.5361 0.7713 0.0000
vt 0.5361 0.7539 0.0000
vt 0.5238 0.7404 0.0000
vt 0.7746 0.7404 0.0000
vt 0.7623 0.6826 0.0000
vt 0.7746 0.6961 0.0000
vt 0.5238 0.6961 0.0000
vt 0.5361 0.6826 0.0000
vt 0.8906 0.9143 0.0000
vt 0.8682 0.9143 0.0000
vt 0.8682 0.8999 0.0000
vt 0.8906 0.8999 0.0000
vt 0.2288 0.9520 0.0000
vt 0.3748 0.9520 0.0000
vt 0.3749 0.9678 0.0000
vt 0.2290 0.9678 0.0000
vt 0.4008 0.9168 0.0000
vt 0.4010 0.9326 0.0000
vt 0.2140 0.9326 0.0000
vt 0.2138 0.9168 0.0000
vt 0.2145 0.9874 0.0000
vt 0.4015 0.9874 0.0000
vt 0.8918 0.9335 0.0000
vt 0.8682 0.9335 0.0000
vt 0.8682 0.9222 0.0000
vt 0.8918 0.9222 0.0000
vt 0.9035 0.9142 0.0000
vt 0.9035 0.8997 0.0000
vt 0.9259 0.8997 0.0000
vt 0.9259 0.9142 0.0000
vt 0.1823 0.9518 0.0000
vt 0.1824 0.9673 0.0000
vt 0.0383 0.9673 0.0000
vt 0.0383 0.9518 0.0000
vt 0.0121 0.9169 0.0000
vt 0.1967 0.9169 0.0000
vt 0.1968 0.9324 0.0000
vt 0.0122 0.9324 0.0000
vt 0.1970 0.9869 0.0000
vt 0.0124 0.9869 0.0000
vt 0.8665 0.9593 0.0000
vt 0.8665 0.9480 0.0000
vt 0.8901 0.9480 0.0000
vt 0.8901 0.9593 0.0000
vt 0.8594 0.8847 0.0000
vt 0.8594 0.6684 0.0000
vt 0.8839 0.6625 0.0000
vt 0.8839 0.8782 0.0000
vt 0.8468 0.6683 0.0000
vt 0.8468 0.8846 0.0000
vt 0.8228 0.8777 0.0000
vt 0.8228 0.6620 0.0000
vt 0.8102 0.8774 0.0000
vt 0.8102 0.6617 0.0000
vt 0.1113 0.6768 0.0000
vt 0.0759 0.6768 0.0000
vt 0.0759 0.6605 0.0000
vt 0.1113 0.6605 0.0000
vt 0.2911 0.6631 0.0000
vt 0.3221 0.6631 0.0000
vt 0.3221 0.6788 0.0000
vt 0.2911 0.6788 0.0000
vt 0.9367 0.6668 0.0000
vt 0.9367 0.8813 0.0000
vt 0.9134 0.8745 0.0000
vt 0.9134 0.6593 0.0000
vt 0.9490 0.8812 0.0000
vt 0.9490 0.6666 0.0000
vt 0.9722 0.6585 0.0000
vt 0.9722 0.8737 0.0000
vt 0.9844 0.6585 0.0000
vt 0.9844 0.8737 0.0000
vt 0.2006 0.6657 0.0000
vt 0.2360 0.6657 0.0000
vt 0.2360 0.6820 0.0000
vt 0.2006 0.6820 0.0000
vt 0.3793 0.6642 0.0000
vt 0.4103 0.6642 0.0000
vt 0.4103 0.6798 0.0000
vt 0.3793 0.6798 0.0000
vt 0.8548 0.9650 0.0000
vt 0.8486 0.9884 0.0000
vt 0.6400 0.9884 0.0000
vt 0.6457 0.9650 0.0000
vt 0.6456 0.9529 0.0000
vt 0.6394 0.9296 0.0000
vt 0.8479 0.9296 0.0000
vt 0.8546 0.9529 0.0000
vt 0.6392 0.9175 0.0000
vt 0.8476 0.9175 0.0000
vt 0.1912 0.6654 0.0000
vt 0.1912 0.6817 0.0000
vt 0.1558 0.6817 0.0000
vt 0.1558 0.6654 0.0000
vt 0.3326 0.6779 0.0000
vt 0.3326 0.6623 0.0000
vt 0.3636 0.6623 0.0000
vt 0.3636 0.6779 0.0000
vt 0.6207 0.9528 0.0000
vt 0.6285 0.9750 0.0000
vt 0.4215 0.9751 0.0000
vt 0.4144 0.9528 0.0000
vt 0.4143 0.9410 0.0000
vt 0.4209 0.9186 0.0000
vt 0.6279 0.9186 0.0000
vt 0.6206 0.9410 0.0000
vt 0.6285 0.9869 0.0000
vt 0.4215 0.9869 0.0000
vt 0.0697 0.6614 0.0000
vt 0.0697 0.6777 0.0000
vt 0.0343 0.6777 0.0000
vt 0.0343 0.6614 0.0000
vt 0.2461 0.6792 0.0000
vt 0.2461 0.6636 0.0000
vt 0.2771 0.6636 0.0000
vt 0.2771 0.6792 0.0000
# 238 texture coords

o Table_low
g Table_low
usemtl Material__25
s off
f 1/1/1 2/2/1 3/3/1 4/4/1 
f 2/5/2 1/1/2 5/6/2 6/7/2 
f 2/8/3 6/9/3 7/10/3 3/11/3 
f 5/6/4 8/12/4 7/10/4 6/9/4 
f 3/13/5 7/14/5 8/12/5 4/4/5 
f 1/1/6 4/4/6 8/12/6 5/6/6 
f 9/15/1 10/16/1 11/17/1 12/18/1 
f 13/19/7 10/16/7 9/15/7 14/20/7 
f 11/21/8 10/22/8 13/19/8 15/23/8 16/24/8 17/25/8 
f 18/26/4 19/27/4 17/28/4 16/29/4 
f 12/30/6 11/21/6 17/25/6 19/31/6 
f 13/19/3 14/20/3 20/32/3 15/23/3 
f 14/33/2 9/34/2 12/30/2 19/31/2 18/35/2 20/36/2 
f 15/23/9 20/32/9 18/26/9 16/29/9 
f 21/37/1 22/38/1 23/39/1 24/40/1 
f 25/41/2 22/42/2 21/37/2 26/43/2 
f 26/43/6 21/37/6 24/40/6 27/44/6 
f 26/43/4 27/44/4 28/45/4 25/46/4 
f 28/47/5 27/44/5 24/40/5 23/48/5 
f 25/46/3 28/45/3 23/49/3 22/50/3 
f 29/51/2 30/52/2 31/53/2 32/54/2 
f 31/55/3 30/56/3 33/57/3 34/58/3 
f 32/54/1 31/59/1 34/60/1 35/61/1 
f 29/51/6 32/54/6 35/61/6 36/62/6 
f 30/56/4 29/51/4 36/62/4 33/57/4 
f 36/62/5 35/61/5 34/63/5 33/64/5 
f 37/65/1 38/66/1 39/67/1 40/68/1 
f 41/69/4 42/70/4 43/71/4 44/72/4 
f 39/73/6 38/74/6 43/75/6 42/76/6 
f 45/77/3 46/78/3 47/79/3 48/80/3 
f 46/78/8 45/77/8 44/81/8 43/75/8 38/74/8 37/82/8 
f 48/83/2 47/84/2 40/85/2 39/73/2 42/76/2 41/86/2 
f 47/79/10 46/78/10 37/65/10 40/68/10 
f 45/77/11 48/80/11 41/69/11 44/72/11 
f 49/87/1 50/88/1 51/89/1 52/90/1 
f 53/91/7 54/92/7 49/87/7 52/90/7 
f 51/93/12 55/94/12 56/95/12 57/96/12 53/91/12 52/97/12 
f 58/98/4 56/99/4 55/100/4 59/101/4 
f 50/102/6 59/103/6 55/94/6 51/93/6 
f 53/91/3 57/96/3 60/104/3 54/92/3 
f 54/105/5 60/106/5 58/107/5 59/103/5 50/102/5 49/108/5 
f 57/96/9 56/99/9 58/98/9 60/104/9 
f 61/109/1 62/110/1 63/111/1 64/112/1 
f 65/113/4 66/114/4 67/115/4 68/116/4 
f 63/117/6 68/118/6 67/119/6 64/120/6 
f 69/121/3 70/122/3 71/123/3 72/124/3 
f 72/124/2 61/125/2 64/120/2 67/119/2 66/126/2 69/121/2 
f 70/127/5 65/128/5 68/118/5 63/117/5 62/129/5 71/130/5 
f 71/123/10 62/110/10 61/109/10 72/124/10 
f 69/121/11 66/114/11 65/113/11 70/122/11 
f 73/131/13 74/132/13 75/133/13 76/134/13 
f 74/135/14 77/136/14 78/137/14 75/138/14 
f 79/139/15 80/140/15 73/141/15 76/142/15 
f 76/143/16 75/138/16 78/137/16 79/144/16 
f 80/140/4 77/136/4 74/135/4 73/141/4 
f 77/145/17 80/146/17 79/147/17 78/148/17 
f 81/149/18 82/150/18 83/151/18 84/152/18 
f 84/153/19 83/154/19 85/155/19 86/156/19 
f 87/157/20 82/158/20 81/159/20 88/160/20 
f 82/161/1 87/162/1 85/155/1 83/154/1 
f 88/160/4 81/159/4 84/153/4 86/156/4 
f 86/163/21 85/164/21 87/165/21 88/166/21 
f 89/167/8 90/168/8 91/169/8 92/170/8 
f 93/171/2 94/172/2 95/173/2 96/174/2 
f 95/173/22 92/175/22 91/176/22 96/174/22 
f 93/171/23 90/168/23 89/167/23 94/172/23 
f 95/177/3 94/178/3 89/179/3 92/180/3 
f 91/181/6 90/182/6 93/183/6 96/184/6 
f 97/185/5 98/186/5 99/187/5 100/188/5 
f 101/189/2 102/190/2 103/191/2 104/192/2 
f 103/191/24 100/193/24 99/194/24 104/192/24 
f 101/189/25 98/186/25 97/185/25 102/190/25 
f 103/195/3 102/196/3 97/197/3 100/198/3 
f 99/199/6 98/200/6 101/201/6 104/202/6 
f 105/203/2 106/204/2 107/205/2 108/206/2 
f 109/207/5 110/208/5 111/209/5 112/210/5 
f 111/209/22 110/208/22 107/211/22 106/212/22 
f 109/207/23 112/210/23 105/203/23 108/206/23 
f 111/213/3 106/214/3 105/215/3 112/216/3 
f 107/217/6 110/218/6 109/219/6 108/220/6 
f 113/221/2 114/222/2 115/223/2 116/224/2 
f 117/225/5 118/226/5 119/227/5 120/228/5 
f 119/229/24 118/230/24 115/223/24 114/222/24 
f 117/225/25 120/228/25 113/221/25 116/224/25 
f 119/231/3 114/232/3 113/233/3 120/234/3 
f 115/235/6 118/236/6 117/237/6 116/238/6 
# 86 polygons

